<svg class="h-8 w-auto" viewBox="0 0 185 32"><path d="M1293.36 948.67c-.72-.04-1.26-.01-1.98-.06a714.8 714.8 0 01-21.53-1.71c-7.3-.7-14.69-1.52-22.08-2.51-7.4-.99-14.79-2.13-22.02-3.46a336.73 336.73 0 01-21.2-4.58 232.16 232.16 0 01-19.61-5.8c-3.1-1.08-6.14-2.23-9.04-3.43-2.9-1.2-5.67-2.47-8.34-3.8-2.66-1.32-5.2-2.7-7.61-4.15a80.42 80.42 0 01-6.8-4.58 61.48 61.48 0 01-5.83-4.98 48.65 48.65 0 01-4.84-5.44l-3.73-5.9a35.32 35.32 0 01-3.79-13.22c-.19-2.37-.15-4.8.13-7.35a50.1 50.1 0 00-2.08-21.4 53.22 53.22 0 00-2.56-6.49c-1-2.1-2.14-4.18-3.4-6.2-1.26-2-2.65-3.95-4.15-5.86a93.4 93.4 0 00-16.38-15.86c-2.1-1.62-4.31-3.18-6.57-4.71-.93-.63-2-1.16-2.96-1.78-34.01 75.57-88.23 122.38-199.67 143.13-18.25 3.4-12.23 25.65 0 25.65 131.58 0 282.95-.62 396.04-35.5z"  fill="#5f1010"/><path d="M1290.26 598.79c-83.19 0-152.37 59.99-166.6 139.08-7.68 28.63-16.26 54.4-26.67 77.53.96.62 2.03 1.15 2.96 1.78 2.26 1.53 4.46 3.1 6.56 4.71a93.39 93.39 0 0116.38 15.86c1.51 1.9 2.9 3.86 4.16 5.87 1.26 2 2.4 4.08 3.4 6.2a53.35 53.35 0 014.25 13.28 50.08 50.08 0 01.4 14.6 38.35 38.35 0 00-.14 7.35 34.77 34.77 0 003.8 13.22 39.86 39.86 0 003.72 5.9 48.73 48.73 0 004.84 5.44 61.49 61.49 0 005.84 4.98 80.9 80.9 0 006.79 4.58 103.9 103.9 0 007.61 4.16c2.67 1.32 5.44 2.59 8.34 3.79 2.9 1.2 5.93 2.34 9.04 3.42 6.2 2.17 12.77 4.09 19.61 5.8a336.73 336.73 0 0021.2 4.59 456.43 456.43 0 0022.02 3.46c7.4.99 14.78 1.81 22.08 2.5 7.31.7 14.55 1.27 21.53 1.72.72.05 1.26.02 1.98.06 65.23-20.12 117.78-51.58 146.33-101.03a168.65 168.65 0 0019.8-79.58c0-93.49-75.74-169.27-169.23-169.27z"  fill="#ff3c3c"/><ellipse transform="translate(-1160.73 -67.24)" cx="1950.9" cy="1069.77" rx="102.68" ry="100.29" fill="#fff"/><path d="M1078.84 1422.32c-.3-.65-.59-1.11-.9-1.77-2.99-6.32-6-12.92-8.94-19.65a585.22 585.22 0 01-8.51-20.54 457.68 457.68 0 01-7.65-20.93 336.73 336.73 0 01-6.27-20.76 232.16 232.16 0 01-4.43-19.97c-.56-3.24-1.03-6.44-1.38-9.56-.36-3.12-.6-6.16-.73-9.13-.14-2.98-.17-5.87-.06-8.68.1-2.8.35-5.54.72-8.16s.87-5.11 1.52-7.52c.65-2.4 1.45-4.7 2.4-6.87l3.36-6.12a35.32 35.32 0 019.73-9.72 38.35 38.35 0 016.49-3.45 50.1 50.1 0 0017.7-12.19c1.6-1.7 3.08-3.5 4.44-5.4 1.36-1.9 2.63-3.9 3.77-5.97a67.36 67.36 0 003.12-6.48 93.4 93.4 0 005.92-22.02c.4-2.62.7-5.3.95-8.02.1-1.12.04-2.32.12-3.46-82.59 6.9-149.8-17.83-221.99-105.24-11.82-14.31-28.36 1.74-22.43 12.44 63.79 115.08 137.72 247.17 223.05 329.17z"  fill="#242e52"/><path d="M1383.36 1249.98c-40.33-72.76-126.34-104.18-202.41-78.29-28.76 7.17-55.46 12.15-80.74 14.26-.08 1.14-.02 2.34-.12 3.46-.24 2.71-.55 5.4-.94 8.02a93.39 93.39 0 01-5.92 22.02 67.37 67.37 0 01-3.13 6.48 59.1 59.1 0 01-3.77 5.97 53.35 53.35 0 01-9.56 10.16 50.08 50.08 0 01-12.58 7.43 38.35 38.35 0 00-6.5 3.45 34.77 34.77 0 00-9.72 9.72 39.86 39.86 0 00-3.35 6.12 48.73 48.73 0 00-2.41 6.88c-.65 2.4-1.15 4.9-1.53 7.51a80.9 80.9 0 00-.71 8.16c-.1 2.81-.08 5.7.06 8.68.13 2.97.37 6.01.73 9.13.35 3.12.82 6.32 1.38 9.56a231.79 231.79 0 004.43 19.97 336.73 336.73 0 006.27 20.76c2.34 6.97 4.93 14 7.65 20.94 2.72 6.94 5.58 13.8 8.51 20.53a711.54 711.54 0 008.94 19.66c.31.65.6 1.1.9 1.76 49.23 47.3 102.22 78 159.31 79a168.65 168.65 0 0079.2-21.25c81.78-45.33 111.33-148.32 66-230.1z"  fill="#7dbbce"/><path d="M597.06 1463.18c.4-.6.65-1.08 1.05-1.69 3.88-5.82 8-11.8 12.25-17.78a585.22 585.22 0 0113.21-17.87c4.55-5.91 9.24-11.74 14-17.34 4.78-5.6 9.66-11 14.57-16.07 4.92-5.07 9.86-9.79 14.84-14.09 2.48-2.14 5-4.2 7.48-6.1 2.49-1.91 4.97-3.68 7.45-5.33 2.49-1.65 4.95-3.17 7.4-4.52a80.42 80.42 0 017.37-3.59 61.48 61.48 0 017.23-2.56c2.4-.68 4.78-1.18 7.13-1.48l6.98-.27a35.32 35.32 0 0113.34 3.32 38.35 38.35 0 016.3 3.8 50.1 50.1 0 0019.57 8.9c2.27.48 4.58.82 6.9 1.01 2.33.2 4.7.25 7.07.16 2.37-.1 4.75-.31 7.16-.67a93.4 93.4 0 0021.92-6.26c2.45-1 4.92-2.13 7.36-3.32 1.02-.5 2.02-1.16 3.03-1.68-48.44-67.24-61.87-137.6-24.12-244.48 6.18-17.5-16.1-23.41-22.21-12.83-65.8 113.96-140.94 245.35-167.28 360.73z" fill="#2d5423"/><path d="M901.62 1635.44c41.6-72.05 24.23-161.95-37.14-213.83-20.96-20.96-38.98-41.27-53.81-61.86-1.02.52-2 1.19-3.02 1.68a131.73 131.73 0 01-7.37 3.32 93.39 93.39 0 01-21.92 6.26c-2.4.36-4.79.58-7.16.67a59.1 59.1 0 01-7.06-.16 53.35 53.35 0 01-13.64-2.96 50.08 50.08 0 01-12.84-6.96 38.35 38.35 0 00-6.3-3.79 34.77 34.77 0 00-13.34-3.32c-2.3-.12-4.63-.03-6.98.27-2.34.3-4.73.8-7.13 1.48-2.4.68-4.8 1.53-7.23 2.56a80.9 80.9 0 00-7.36 3.6 103.9 103.9 0 00-7.4 4.51 132.53 132.53 0 00-7.46 5.33c-2.49 1.9-5 3.96-7.48 6.1-4.98 4.3-9.92 9.03-14.84 14.1a336.73 336.73 0 00-14.56 16.06 456.43 456.43 0 00-14.01 17.34c-4.55 5.9-8.96 11.89-13.21 17.87a711.54 711.54 0 00-12.25 17.79c-.4.6-.65 1.08-1.05 1.68-15.19 66.55-14.21 127.79 14.34 177.24a168.65 168.65 0 0059.01 56.95c80.96 46.74 184.47 19.03 231.21-61.93z" fill="#44f747"/><g><path d="M286.9 1067.46c.7.04 1.25.02 1.97.06a714.8 714.8 0 0121.53 1.72c7.3.7 14.69 1.52 22.08 2.5 7.4 1 14.78 2.13 22.02 3.47a336.73 336.73 0 0121.2 4.58c6.84 1.72 13.4 3.64 19.61 5.8 3.1 1.08 6.13 2.23 9.03 3.43 2.9 1.2 5.68 2.46 8.34 3.79 2.67 1.32 5.22 2.7 7.62 4.15a80.42 80.42 0 016.79 4.58c2.1 1.6 4.05 3.25 5.83 4.98a48.65 48.65 0 014.85 5.44l3.73 5.9a35.32 35.32 0 013.79 13.22c.19 2.37.15 4.8-.14 7.35a50.1 50.1 0 002.08 21.4 53.22 53.22 0 002.57 6.49c1 2.11 2.13 4.19 3.4 6.2 1.26 2 2.65 3.96 4.15 5.86a93.4 93.4 0 0016.38 15.86c2.1 1.62 4.31 3.19 6.57 4.71.93.64 2 1.17 2.96 1.79 34.01-75.58 88.23-122.38 199.67-143.14 18.25-3.4 12.23-25.64 0-25.64-131.58 0-282.95.61-396.04 35.5z"   fill="#5f1010"/><path d="M289.99 1417.35c83.19 0 152.37-60 166.6-139.08 7.67-28.63 16.26-54.4 26.67-77.53-.96-.62-2.03-1.15-2.96-1.78-2.26-1.53-4.46-3.1-6.56-4.72a93.39 93.39 0 01-16.38-15.86 67.37 67.37 0 01-4.16-5.86 59.1 59.1 0 01-3.4-6.2 53.35 53.35 0 01-4.25-13.28 50.08 50.08 0 01-.4-14.6c.29-2.55.33-4.99.14-7.36a34.77 34.77 0 00-3.8-13.22 39.86 39.86 0 00-3.72-5.9 48.73 48.73 0 00-4.85-5.44 61.49 61.49 0 00-5.83-4.97 80.9 80.9 0 00-6.79-4.59 103.9 103.9 0 00-7.62-4.15c-2.66-1.32-5.44-2.6-8.34-3.8-2.9-1.2-5.92-2.34-9.03-3.42a231.79 231.79 0 00-19.61-5.8 336.73 336.73 0 00-21.2-4.58 456.43 456.43 0 00-22.02-3.46c-7.4-1-14.78-1.81-22.08-2.51-7.31-.7-14.55-1.26-21.53-1.71-.72-.05-1.26-.03-1.98-.07-65.23 20.12-117.78 51.59-146.33 101.04a168.65 168.65 0 00-19.81 79.57c0 93.5 75.75 169.28 169.24 169.28z"   fill="#ff3c3c"/></g><g><path d="M479.7 601.88c.33.64.63 1.1.96 1.73a714.8 714.8 0 019.62 19.34 585.22 585.22 0 019.23 20.22 457.68 457.68 0 018.37 20.66c2.59 6.89 4.94 13.77 7 20.53a232.16 232.16 0 015.12 19.8c.67 3.21 1.25 6.4 1.71 9.5.47 3.1.81 6.14 1.05 9.1.24 2.97.37 5.86.36 8.67 0 2.81-.15 5.55-.43 8.18s-.7 5.14-1.26 7.57a48.65 48.65 0 01-2.17 6.95l-3.14 6.24a35.32 35.32 0 01-9.37 10.05 38.35 38.35 0 01-6.37 3.68 50.1 50.1 0 00-17.27 12.8 53.22 53.22 0 00-4.24 5.54 59.11 59.11 0 00-3.57 6.1 67.36 67.36 0 00-2.89 6.59 93.4 93.4 0 00-5.15 22.21c-.3 2.63-.52 5.33-.66 8.05-.06 1.13.03 2.32 0 3.46 82.3-9.77 150.34 12.6 225.52 97.43 12.32 13.9 28.29-2.73 21.99-13.21-67.77-112.79-146.26-242.21-234.4-321.19z"   fill="#242e52"/><path d="M181.38 784.74c42.85 71.31 129.9 99.71 205.02 71.18 28.5-8.17 55-14.08 80.2-17.07.03-1.14-.06-2.33 0-3.46.14-2.72.35-5.42.66-8.05a93.39 93.39 0 015.15-22.21 67.37 67.37 0 012.9-6.58 59.1 59.1 0 013.56-6.1 53.35 53.35 0 019.2-10.5 50.08 50.08 0 0112.3-7.85 38.35 38.35 0 006.38-3.68 34.77 34.77 0 009.37-10.05 39.86 39.86 0 003.14-6.24c.88-2.2 1.6-4.53 2.17-6.95.57-2.43.98-4.94 1.26-7.57.28-2.62.42-5.37.43-8.18.01-2.8-.12-5.7-.36-8.66-.24-2.97-.58-6-1.05-9.1-.46-3.1-1.04-6.3-1.7-9.51a231.79 231.79 0 00-5.14-19.8 336.73 336.73 0 00-6.99-20.53 456.43 456.43 0 00-8.37-20.66 583.15 583.15 0 00-9.23-20.22 711.54 711.54 0 00-9.62-19.34c-.33-.64-.63-1.09-.96-1.73-50.85-45.55-104.88-74.38-161.97-73.39a168.65 168.65 0 00-78.42 24c-80.13 48.16-106.08 152.12-57.93 232.25z"   fill="#7dbbce"/></g><g><path d="M990.5 542.9c-.4.6-.64 1.08-1.04 1.68-3.88 5.82-8 11.8-12.25 17.78A585.22 585.22 0 01964 580.24a457.68 457.68 0 01-14 17.34c-4.78 5.6-9.66 11-14.57 16.06a232.16 232.16 0 01-14.84 14.09c-2.48 2.15-5 4.2-7.48 6.1a133.68 133.68 0 01-7.45 5.33 103.91 103.91 0 01-7.4 4.52 80.42 80.42 0 01-7.37 3.59 61.48 61.48 0 01-7.23 2.56c-2.4.68-4.79 1.18-7.13 1.48l-6.98.28a35.32 35.32 0 01-13.34-3.33 38.35 38.35 0 01-6.3-3.79 50.1 50.1 0 00-19.57-8.9c-2.27-.49-4.58-.83-6.9-1.02-2.33-.19-4.7-.25-7.07-.16-2.37.1-4.75.32-7.16.67a93.4 93.4 0 00-21.92 6.26c-2.45 1-4.92 2.13-7.37 3.32-1.01.5-2 1.16-3.02 1.68 48.44 67.24 61.87 137.6 24.12 244.48-6.18 17.51 16.1 23.42 22.21 12.83 65.8-113.95 140.94-245.35 167.28-360.73z"   fill="#2d5423"/><path d="M685.95 370.64c-41.6 72.04-24.23 161.95 37.14 213.82 20.96 20.96 38.98 41.27 53.81 61.86 1.01-.52 2-1.18 3.02-1.68 2.45-1.19 4.92-2.31 7.37-3.32a93.39 93.39 0 0121.92-6.26c2.4-.35 4.79-.58 7.16-.67a59.1 59.1 0 017.06.16 53.35 53.35 0 0113.64 2.96 50.08 50.08 0 0112.84 6.96 38.35 38.35 0 006.3 3.79 34.77 34.77 0 0013.34 3.33c2.3.11 4.63.02 6.98-.28 2.34-.3 4.73-.8 7.13-1.48 2.4-.67 4.8-1.53 7.23-2.56a80.9 80.9 0 007.36-3.59 103.9 103.9 0 007.4-4.52c2.49-1.64 4.97-3.41 7.46-5.32 2.49-1.92 5-3.96 7.48-6.11 4.98-4.3 9.92-9.02 14.83-14.09 4.92-5.06 9.8-10.46 14.57-16.06 4.77-5.6 9.46-11.43 14.01-17.34 4.55-5.91 8.96-11.9 13.21-17.88a711.54 711.54 0 0012.25-17.78c.4-.6.65-1.08 1.05-1.68 15.19-66.56 14.21-127.8-14.34-177.25a168.65 168.65 0 00-59-56.94c-80.97-46.75-184.48-19.04-231.22 61.93z"   fill="#44f747"/></g></svg>